<?xml version="1.0" encoding="utf-8"?>
<!-- Generator: Adobe Illustrator 22.1.0, SVG Export Plug-In . SVG Version: 6.00 Build 0)  -->
<svg version="1.1" id="Layer_1" xmlns="http://www.w3.org/2000/svg" xmlns:xlink="http://www.w3.org/1999/xlink" x="0px" y="0px"
	 viewBox="0 0 100 100" style="enable-background:new 0 0 100 100;" xml:space="preserve">
<style type="text/css">
	.st0{fill:#032E38;}
	.st1{fill:#00A89F;}
	.st2{fill:#60787C;}
</style>
<g>
	<path class="st0" d="M42.7,3c0,0.4-0.1,0.8-0.1,1.2c0,16.7,0,33.5,0,50.2c0,0.5,0,1,0,1.6c-1.8,0-3.5,0-5.2,0
		c-0.3-0.3-0.1-0.8-0.1-1.2c0-16.8,0-33.6,0-50.3c0-0.5-0.1-1,0.3-1.4C39.2,3,41,3,42.7,3z"/>
	<path class="st1" d="M100,3c0,1.6,0,3.2,0,4.9c-15.1,0-30.1,0-45.2,0c0-1.6,0-3.3,0-4.9C69.9,3,84.9,3,100,3z"/>
	<path class="st2" d="M19.7,96.9c-0.5-0.8-0.2-1.8-0.2-2.6c0-0.5,0-1,0-1.4c-0.5-0.4-0.9,0-1.3,0.1c-2.6,0.7-5-0.6-5.7-3.2
		c-0.8-3,0.1-5.7,2.5-6.9c1-0.5,2-0.6,3.1-0.5c1.1,0.1,2.2,0.2,3.2,0.5c0.3,0.4,0.2,0.7,0.2,1c0,3.9,0,7.9,0,11.8
		c0,0.5,0,0.9-0.3,1.3C20.7,96.9,20.2,96.9,19.7,96.9z M19.5,84.2c-2.9-0.5-4.3,0-5,1.6c-0.8,1.7-0.4,4.3,0.8,5.3
		c1.1,0.8,2.9,0.7,4.3-0.3c0-1.9,0-3.8,0-5.7C19.6,84.7,19.5,84.5,19.5,84.2z"/>
	<path class="st0" d="M0,55.6c1.8,0,3.5,0,5.3,0c0.2,1.7,0.5,3.4,1.6,4.8c3.6,5,12.1,4.6,15.1-0.7c2.3-4,0.3-9.5-4-11.2
		c-1.6-0.6-3.3-0.7-4.9-0.9c-4-0.5-7.2-2.4-9.5-5.8c-3.1-4.8-1.8-11.3,3-14.6c2.3-1.6,4.8-2.4,7.5-2.4c4.5-0.1,9,0,13.5,0
		c0.2,0,0.3,0.1,0.5,0.1c0.1,1.2,0.1,2.4,0,3.6c-1.5,0.3-3,0.6-4.6,0.9c4.6,5.5,3.1,11.8-1.8,15.6c0.8,0.7,1.7,1.1,2.4,1.8
		c6.7,6.1,5,17-3.3,20.7c-6.2,2.7-13.5,1.3-17.9-3.6C0.9,61.6-0.1,58.9,0,55.6z M14.3,43c4.1,0,6.8-2.6,6.7-6.7c0-4-2.8-6.7-6.8-6.7
		c-3.9,0-7.1,3-7.1,6.7C7.1,40.2,10.1,43,14.3,43z"/>
	<path class="st0" d="M95.4,55.6c-0.3-1.2-0.5-2.5-0.8-3.8c-5.6,6.3-15,5.7-20.3,0.9c-2.9-2.6-4.4-6-4.9-9.8c-0.5-3.8,0-7.5,2-10.8
		c2.7-4.7,6.8-7.3,12.2-7.5c4.2-0.2,7.8,1,10.7,4.1c0,0,0.1,0,0.3,0.1c0.5-1.1,0.5-2.2,0.8-3.4c1.5,0,2.9,0,4.5,0
		c0,10.1,0,20.1,0,30.2C98.4,55.6,96.9,55.6,95.4,55.6z M95,40.5c0.1-1.5-0.3-3.2-0.9-4.7c-1.5-3.4-4-5.6-7.8-6.1
		c-3.8-0.5-7,0.7-9.3,3.8c-2.1,2.9-2.5,6.2-2,9.7c1,6,7.1,9.7,12.9,7.9C92.3,49.8,95,45.7,95,40.5z"/>
	<path class="st1" d="M54.8,19.1c0-1.6,0-3.2,0-4.9c15.1,0,30.1,0,45.2,0c0,1.6,0,3.2,0,4.9C84.9,19.1,69.9,19.1,54.8,19.1z"/>
	<path class="st0" d="M55.2,25.5c1.8,0,3.4,0,5.2,0c0,10.1,0,20.1,0,30.2c-1.7,0-3.4,0-5.2,0C55.2,45.6,55.2,35.6,55.2,25.5z"/>
	<path class="st2" d="M9.1,88.2c-2.3,0-4.7,0-7,0c0.1,2.4,1.2,4,6.1,3.1c0.3,0.4,0.3,0.8,0.2,1.2c-2.5,1.3-6.4,0.7-7.6-1.8
		c-1-2-1-4.1,0-6c1-2,3-2.8,5.2-2.3c1.9,0.4,3,1.9,3.2,4.2C9.2,87,9.3,87.5,9.1,88.2z M7.2,86.7c0-1.9-0.9-3-2.4-3
		c-1.6,0-2.7,1.3-2.6,3C3.9,86.7,5.6,86.7,7.2,86.7z"/>
	<path class="st2" d="M100,88.2c-2.6,0-4.9,0-7.2,0c-0.1,2.9,1.4,3.7,6,3.1c0.2,0.1,0.2,0.3,0.3,0.5c0,0.2,0.1,0.4,0.2,0.7
		c-2,0.8-4.1,1-6-0.1c-1.8-1-2.4-2.6-2.4-4.5c0-1.3,0.2-2.5,0.9-3.6c1.1-1.6,3-2.4,4.9-2c1.7,0.4,2.8,1.6,3.2,3.6
		C99.9,86.6,99.9,87.3,100,88.2z M97.9,86.7c0.1-1.8-0.7-2.9-2.2-2.9c-1.6-0.1-2.8,1.1-2.8,2.9C94.6,86.7,96.2,86.7,97.9,86.7z"/>
	<path class="st2" d="M43.3,86.7c0.4-2-0.4-2.9-2.2-2.9c-0.8,0-1.6,0.1-2.4,0.3c-0.4-0.4-0.2-0.9-0.2-1.4c1.6-0.5,3.2-0.7,4.8-0.1
		c1.5,0.6,2,1.8,2,3.3c0.1,2.3,0,4.5,0,6.9c-2.1,0.3-4.1,0.9-6.1,0.1c-1.4-0.6-2-1.5-1.9-3.1c0.1-1.4,0.9-2.4,2.2-2.8
		C40.7,86.4,42,86.5,43.3,86.7z M43.4,88.2c-0.7-0.3-1.3-0.1-1.9-0.2c-0.3,0-0.6,0-0.9,0c-1,0.2-1.5,0.9-1.5,1.8
		c0,1,0.6,1.5,1.6,1.6c0.9,0.1,1.8,0.2,2.7-0.1C43.5,90.3,43.5,89.3,43.4,88.2z"/>
	<path class="st2" d="M76.9,86.7c0.3-2.2-1-3.1-2.6-3c-0.7,0.1-1.5,0.2-2.2,0.2c-0.3-0.4-0.3-0.9-0.1-1.3c1-0.4,2-0.5,3.1-0.5
		c2.4,0.1,3.6,1.4,3.6,3.8c0,2.2,0,4.4,0,6.7c-2,0.4-4,0.8-5.9,0.2c-1.3-0.4-2.1-1.6-2.1-3c0-1.3,0.8-2.4,2.1-2.9
		C73.7,86.5,74.7,86.5,76.9,86.7z M76.9,88.2c-1.2-0.1-2.3-0.3-3.3,0.1c-0.7,0.3-1,0.9-1,1.7c0.1,0.8,0.5,1.2,1.2,1.4
		c1,0.2,2.1,0.2,3.1,0C77,90.3,77,89.3,76.9,88.2z"/>
	<path class="st2" d="M25.5,82.5c0.7-0.1,1.2-0.1,1.9,0c0,1.5,0,3,0,4.4c0,0.7,0,1.5,0,2.2c0.1,1.6,0.9,2.3,2.6,2.4
		c0.7,0,1.3,0,2-0.2c0-2.9,0-5.8,0-8.7c0.7-0.3,1.2-0.2,1.9-0.2c0,3.3,0,6.6,0,10.1c-1.6,0.5-3.4,0.8-5.1,0.5
		c-2.1-0.4-3.2-1.7-3.3-4.1C25.4,86.8,25.5,84.7,25.5,82.5z"/>
	<path class="st2" d="M68.3,82.7c-0.1,0.5-0.1,0.9-0.4,1.3c-1.7-0.3-3.6-0.8-4.7,1.1c-1,1.6-1,3.4-0.1,5c1.2,2.1,3.2,1.4,5.1,1.2
		c0.3,0.3,0.3,0.8,0.3,1.1c-2,1.2-5,0.8-6.5-0.9c-1.6-1.8-1.8-5.4-0.3-7.5C63.1,82.2,65.7,81.6,68.3,82.7z"/>
	<path class="st2" d="M52.8,91.7c-0.1,0.5-0.2,0.9-0.3,1.4c-2,0-3.1-0.8-3.1-2.4c-0.1-4.3,0-8.5,0-12.9c0.5-0.3,1.1-0.3,1.6-0.3
		c0.2,0.6,0.1,1.2,0.1,1.8c0,3.4,0,6.8,0,10.2C51.1,91,51.2,91.1,52.8,91.7z"/>
	<path class="st2" d="M82.8,83c1.8-0.8,3.7-0.9,5.7-0.5c0.1,0.6,0,1-0.3,1.5c-1.2-0.2-2.4-0.4-3.6,0.2c0,2.8,0,5.7,0,8.6
		c-0.7,0.1-1.2,0.1-1.9,0C82.8,89.6,82.8,86.3,82.8,83z"/>
</g>
</svg>
